<svg xmlns="http://www.w3.org/2000/svg" version="1.1" xmlns:xlink="http://www.w3.org/1999/xlink" width="1500" height="1500" viewBox="0 0 1500 1500"><rect width="1500" height="1500" x="0" y="0" id="background" stroke="transparent" fill="#959595"></rect><svg xml:space="preserve" width="1000" height="1000" data-version="2" data-id="lg_IwWBjNAhsIrQKNNb0w" viewBox="0 0 557 242" x="250" y="250"><rect width="100%" height="100%" fill="transparent"></rect><path fill="#ffffff" d="M5.32 209.55Q16 193.53 23.07 179.72q7.06-13.82 13.65-32.03 22.3 12.87 51.81 20.1 29.52 7.22 54.95 7.22 26.07 0 36.74-4.55 10.68-4.56 10.68-9.9 0-19.15-58.41-19.15-64.05 0-92.94-13.34-28.89-13.35-28.89-43.18 0-42.39 35.17-62.49Q81 2.31 137.2 2.31q32.66 0 67.04 8.32 34.39 8.32 62.02 22.76-9.11 20.73-19.16 50.56-1.88 6.28-3.14 9.42-16.01-12.88-48.35-21.51-32.34-8.64-57.15-8.64-29.83 0-40.19 3.93-10.36 3.92-10.36 11.46 0 7.54 14.28 12.09 14.29 4.55 41.29 4.55 66.57 0 96.72 15.23 30.14 15.23 30.14 46.63 0 43.96-32.03 63.27-32.02 19.31-97.02 19.31-34.86 0-70.97-7.69t-65-22.45" paint-order="stroke"></path><path fill="#ffffff" d="m434.25 8.59 24.49 142.24L475.07 8.59h76.61l-42.07 227.96h-96.4l-21.35-127.17-24.81 127.17h-92.31L232.66 8.59h76.62l16.01 140.36L350.41 8.59z" paint-order="stroke"></path></svg></svg>